HIERARCHY
ROOT Hips
{
	OFFSET 0.00000 0.00000 0.00000
	CHANNELS 6 Xposition Yposition Zposition Zrotation Yrotation Xrotation 
	JOINT LHipJoint
	{
		OFFSET 0 0 0
		CHANNELS 3 Zrotation Yrotation Xrotation
		JOINT LeftUpLeg
		{
			OFFSET 1.61024 -1.73873 0.75100
			CHANNELS 3 Zrotation Yrotation Xrotation
			JOINT LeftLeg
			{
				OFFSET 2.29819 -6.31424 0.00000
				CHANNELS 3 Zrotation Yrotation Xrotation
				JOINT LeftFoot
				{
					OFFSET 2.76618 -7.60002 0.00000
					CHANNELS 3 Zrotation Yrotation Xrotation
					JOINT LeftToeBase
					{
						OFFSET 0.16838 -0.46263 2.02361
						CHANNELS 3 Zrotation Yrotation Xrotation
						End Site
						{
							OFFSET 0.00000 -0.00000 1.04662
						}
					}
				}
			}
		}
	}
	JOINT RHipJoint
	{
		OFFSET 0 0 0
		CHANNELS 3 Zrotation Yrotation Xrotation
		JOINT RightUpLeg
		{
			OFFSET -1.46153 -1.73873 0.75100
			CHANNELS 3 Zrotation Yrotation Xrotation
			JOINT RightLeg
			{
				OFFSET -2.38373 -6.54924 0.00000
				CHANNELS 3 Zrotation Yrotation Xrotation
				JOINT RightFoot
				{
					OFFSET -2.80314 -7.70157 0.00000
					CHANNELS 3 Zrotation Yrotation Xrotation
					JOINT RightToeBase
					{
						OFFSET -0.16142 -0.44349 2.02101
						CHANNELS 3 Zrotation Yrotation Xrotation
						End Site
						{
							OFFSET -0.00000 -0.00000 1.04381
						}
					}
				}
			}
		}
	}
	JOINT LowerBack
	{
		OFFSET 0 0 0
		CHANNELS 3 Zrotation Yrotation Xrotation
		JOINT Spine
		{
			OFFSET -0.01629 1.66985 0.14750
			CHANNELS 3 Zrotation Yrotation Xrotation
			JOINT Spine1
			{
				OFFSET 0.02086 1.62378 0.20980
				CHANNELS 3 Zrotation Yrotation Xrotation
				JOINT Neck
				{
					OFFSET 0 0 0
					CHANNELS 3 Zrotation Yrotation Xrotation
					JOINT Neck1
					{
						OFFSET -0.05690 1.78719 0.08702
						CHANNELS 3 Zrotation Yrotation Xrotation
						JOINT Head
						{
							OFFSET 0.16035 1.73871 -0.38470
							CHANNELS 3 Zrotation Yrotation Xrotation
							End Site
							{
								OFFSET 0.05645 1.80914 -0.14081
							}
						}
					}
				}
				JOINT LeftShoulder
				{
					OFFSET 0 0 0
					CHANNELS 3 Zrotation Yrotation Xrotation
					JOINT LeftArm
					{
						OFFSET 2.83089 1.66494 -0.46008
						CHANNELS 3 Zrotation Yrotation Xrotation
						JOINT LeftForeArm
						{
							OFFSET 5.54893 -0.00000 -0.00000
							CHANNELS 3 Zrotation Yrotation Xrotation
							JOINT LeftHand
							{
								OFFSET 3.02898 -0.00000 -0.00000
								CHANNELS 3 Zrotation Yrotation Xrotation
								JOINT LeftFingerBase
								{
									OFFSET 0 0 0
									CHANNELS 3 Zrotation Yrotation Xrotation
									JOINT LeftHandIndex1
									{
										OFFSET 0.64095 -0.00000 -0.00000
										CHANNELS 3 Zrotation Yrotation Xrotation
										End Site
										{
											OFFSET 0.51675 -0.00000 -0.00000
										}
									}
								}
								JOINT LThumb
								{
									OFFSET 0 0 0
									CHANNELS 3 Zrotation Yrotation Xrotation
									End Site
									{
										OFFSET 0.52464 -0.00000 0.52464
									}
								}
							}
						}
					}
				}
				JOINT RightShoulder
				{
					OFFSET 0 0 0
					CHANNELS 3 Zrotation Yrotation Xrotation
					JOINT RightArm
					{
						OFFSET -2.84442 1.45761 -0.18088
						CHANNELS 3 Zrotation Yrotation Xrotation
						JOINT RightForeArm
						{
							OFFSET -5.35190 -0.00000 -0.00000
							CHANNELS 3 Zrotation Yrotation Xrotation
							JOINT RightHand
							{
								OFFSET -3.02531 -0.00000 -0.00000
								CHANNELS 3 Zrotation Yrotation Xrotation
								JOINT RightFingerBase
								{
									OFFSET 0 0 0
									CHANNELS 3 Zrotation Yrotation Xrotation
									JOINT RightHandIndex1
									{
										OFFSET -0.78389 -0.00000 -0.00000
										CHANNELS 3 Zrotation Yrotation Xrotation
										End Site
										{
											OFFSET -0.63199 -0.00000 -0.00000
										}
									}
								}
								JOINT RThumb
								{
									OFFSET 0 0 0
									CHANNELS 3 Zrotation Yrotation Xrotation
									End Site
									{
										OFFSET -0.64164 -0.00000 0.64164
									}
								}
							}
						}
					}
				}
			}
		}
	}
}
MOTION
Frames: 8
Frame Time: .0083333
-0.42 17.7951 0.8183 0 0 0 0 0 0 -21 0 0 0 0 0 0 0 0 0 0 0 0 0 0 21 0 0 0 0 0 0 0 0 0 0 0 0 0 0 0 0 0 0 0 0 0 0 -16 0 0 21 0 0 11 0 0 0 -8 0 0 0 0 0 0 0 0 0 0 0 0 0 0 0 0 0 0 0 0 8 0 0 0 0 0 0 0 0 0 0 0 0 0 0 0 0 0
-0.4200 17.7951 0.8183 -176.0320 57.2632 -158.0420 0.0000 0.0000 0.0000 -4.0195 -29.8157 -21.9200 0.5806 4.8792 13.5643 -0.1142 6.8894 -6.1606 3.3037 -11.1712 -32.8595 0.0000 0.0000 0.0000 20.8640 1.9423 -17.2662 -0.6840 -5.2878 14.7313 1.0177 -23.6867 -25.9534 -0.4545 4.3248 -11.9922 -6.8547 1.3324 -2.2049 -1.7132 2.1776 2.4881 2.1778 0.9515 3.6363 -7.1913 -12.4016 -8.8794 17.5330 -20.2613 32.4335 5.3153 -6.9450 15.8586 0.0000 -0.0000 0.0000 -107.0827 -38.2274 102.4220 129.2208 -53.3050 -93.2023 -0.0000 0.0000 -85.9429 28.4745 18.7761 9.9027 -7.1250 0.0000 -0.0000 0.2919 51.1234 0.0440 0.0000 -0.0000 0.0000 -65.8112 82.6957 -22.2218 -54.0654 54.5091 -29.4536 0.0000 -0.0000 -29.3169 37.0314 5.6381 4.2389 7.1250 -0.0000 -0.0000 40.4496 -19.7555 34.3690
-0.4167 17.7960 0.8187 -175.8730 57.4968 -157.9190 0.0000 0.0000 0.0000 -3.9513 -29.8093 -21.8728 0.5869 4.9051 13.6381 -0.1232 7.1186 -6.3086 3.2750 -11.1275 -32.7111 0.0000 0.0000 0.0000 20.9003 2.0534 -17.1214 -0.6684 -5.2281 14.5604 1.0352 -23.6840 -25.7900 -0.4767 4.4280 -12.2839 -6.3905 1.0516 -1.5310 -1.9988 1.7134 2.0489 1.5831 0.7683 2.8568 -7.4109 -12.2258 -8.8410 17.3904 -19.9781 32.8247 5.3803 -6.8468 15.9964 0.0000 -0.0000 0.0000 -106.0830 -37.9626 101.0525 129.4974 -53.1962 -93.4239 -0.0000 0.0000 -85.8962 28.7791 19.3946 10.3372 -7.1250 0.0000 -0.0000 0.4898 51.8626 0.0828 0.0000 -0.0000 0.0000 -72.9491 83.5387 -29.9229 -52.2436 53.8613 -27.9762 0.0000 -0.0000 -27.2407 36.7042 5.7353 4.2606 7.1250 -0.0000 -0.0000 40.3187 -19.7931 34.0908
-0.4150 17.7981 0.8195 -175.7540 57.7104 -157.8210 0.0000 0.0000 0.0000 -3.9233 -29.7574 -21.8027 0.5861 4.9020 13.6292 -0.1302 7.2791 -6.3876 3.2820 -11.1381 -32.7471 0.0000 0.0000 0.0000 20.9167 2.1423 -17.0587 -0.6618 -5.2029 14.4881 1.0392 -23.6364 -25.6612 -0.5039 4.5504 -12.6306 -6.3060 0.9244 -1.3227 -2.0926 1.5165 1.8655 1.4266 0.6846 2.5676 -7.6290 -12.1986 -8.7461 17.3332 -19.9028 32.8371 5.4099 -6.8623 15.9822 0.0000 -0.0000 0.0000 -105.7659 -37.8544 100.4993 129.7004 -53.1156 -93.5864 -0.0000 0.0000 -85.8642 28.9165 19.6546 10.5256 -7.1250 0.0000 -0.0000 0.5827 52.1758 0.1029 0.0000 -0.0000 0.0000 -77.6532 83.7710 -34.8896 -50.4752 53.1854 -26.5541 0.0000 -0.0000 -25.1222 36.2014 5.7377 4.1851 7.1250 -0.0000 -0.0000 40.1589 -19.9801 33.5572
-0.4140 17.7991 0.8183 -175.7380 57.9382 -157.7820 0.0000 0.0000 0.0000 -3.9481 -29.7016 -21.7772 0.5861 4.9019 13.6290 -0.1391 7.4571 -6.4307 3.2572 -11.1002 -32.6187 0.0000 0.0000 0.0000 20.8595 2.2074 -17.0322 -0.6534 -5.1705 14.3956 1.0305 -23.5323 -25.5367 -0.5162 4.6052 -12.7857 -6.4872 0.8581 -1.4322 -2.0872 1.4426 1.8570 1.5326 0.6431 2.6224 -7.7322 -12.2387 -8.8067 17.2091 -19.9290 32.7691 5.3525 -6.9129 15.9564 -0.0000 0.0000 0.0000 -105.7671 -37.9417 100.3315 129.8432 -53.0586 -93.7005 -0.0000 0.0000 -85.7224 28.8931 19.5825 10.4794 -7.1250 0.0000 -0.0000 0.5721 52.0916 0.0999 -0.0000 0.0000 0.0000 -80.7079 83.6030 -37.9589 -48.7941 52.4974 -25.2143 0.0000 -0.0000 -22.7732 35.3024 5.8558 4.1322 7.1250 -0.0000 -0.0000 39.8237 -20.1910 32.7159
-0.4110 17.8006 0.8166 -175.7740 58.1787 -157.8010 0.0000 0.0000 0.0000 -4.0245 -29.6390 -21.7081 0.5850 4.8972 13.6156 -0.1468 7.6314 -6.5305 3.2293 -11.0573 -32.4734 0.0000 0.0000 0.0000 20.7613 2.3309 -16.9619 -0.6452 -5.1384 14.3037 1.0405 -23.5232 -25.4259 -0.5117 4.5850 -12.7287 -6.6434 0.8127 -1.5159 -2.1099 1.3939 1.8266 1.5957 0.6166 2.6395 -7.9398 -12.2909 -8.8007 17.1811 -19.9770 32.6997 5.3561 -6.9767 15.9509 0.0000 -0.0000 0.0000 -105.8556 -38.0387 100.2562 129.9068 -53.0330 -93.7514 -0.0000 0.0000 -85.5829 28.7307 19.6458 10.4425 -7.1250 0.0000 -0.0000 0.3925 52.1308 0.0689 0.0000 -0.0000 0.0000 -82.8416 83.4563 -40.1531 -47.2760 51.8360 -24.0152 0.0000 -0.0000 -20.2577 34.4147 6.2164 4.2427 7.1250 -0.0000 -0.0000 39.4001 -20.1548 32.0967
-0.4073 17.8022 0.8169 -175.6900 58.4012 -157.7090 0.0000 0.0000 0.0000 -4.0153 -29.5695 -21.6241 0.5806 4.8792 13.5643 -0.1568 7.8171 -6.5629 3.2441 -11.0802 -32.5507 0.0000 0.0000 0.0000 20.7513 2.4919 -16.8823 -0.6373 -5.1077 14.2161 1.0620 -23.5707 -25.3205 -0.5205 4.6238 -12.8385 -6.7169 0.7793 -1.5852 -2.1540 1.3552 1.7519 1.5905 0.5991 2.6039 -8.0489 -12.3336 -8.6559 17.1298 -20.0066 32.5489 5.3374 -7.0360 15.8486 -0.0000 0.0000 0.0000 -105.8720 -38.0783 100.1519 129.9662 -53.0091 -93.7989 -0.0000 0.0000 -85.5116 28.5725 19.7100 10.4075 -7.1250 0.0000 -0.0000 0.2167 52.1716 0.0383 -0.0000 0.0000 0.0000 -84.7459 83.3934 -42.2872 -45.8561 51.1811 -22.9039 0.0000 -0.0000 -17.7269 33.6318 6.4936 4.3022 7.1250 -0.0000 -0.0000 39.0271 -20.1446 31.5379
-0.4024 17.8035 0.8184 -175.5320 58.6203 -157.6070 0.0000 0.0000 0.0000 -3.9878 -29.4789 -21.4839 0.5777 4.8672 13.5301 -0.1628 7.9575 -6.6706 3.2063 -11.0218 -32.3533 0.0000 0.0000 0.0000 20.7832 2.7155 -16.6834 -0.6258 -5.0621 14.0857 1.0723 -23.6207 -25.3234 -0.5099 4.5772 -12.7065 -6.8338 0.7738 -1.6741 -2.1912 1.3603 1.7280 1.6185 0.6001 2.6278 -7.9997 -12.3936 -8.5179 17.0725 -20.0801 32.2980 5.2727 -7.1016 15.6841 0.0000 -0.0000 0.0000 -105.8499 -38.1385 100.1398 130.1165 -52.9484 -93.9189 -0.0000 0.0000 -85.4243 28.4224 19.6675 10.3231 -7.1250 0.0000 -0.0000 0.0703 52.0964 0.0123 0.0000 -0.0000 0.0000 -86.1114 83.2164 -43.8520 -44.4866 50.5145 -21.8418 0.0000 -0.0000 -15.2303 32.7954 6.6383 4.2599 7.1250 -0.0000 -0.0000 38.6625 -20.2561 30.8496
